# xmcd
#
# Track frame offsets:
# 150
# 16691
# 47127
# 65655
# 77080
# 98269
# 124632
# 142273
# 159268
# 180778
# 192013
# 205087
# 215735
# 228605
# 241728
# 259624
# 274824
# 290418
#
# Disc length: 4047 seconds
#
#
# Revision: 3
# Processed by: cddbd v1.5.2PL0 Copyright (c) Steve Scherf et al.
# Submitted via: FreeRIP 2.944 
#
DISCID=f20fcd12
DTITLE=Various Artist - Jazz and blues legends [CD3/3)
DYEAR=2002
DGENRE=Blues
TTITLE0=John Lee Hooker - Mama, You Got A Daughter
TTITLE1=Jimmy Witherspoon - Ain't Nobody's Business
TTITLE2=Santana - With A Little Help From My Friends
TTITLE3=John Mayall - Lost And Gone (re-recording)
TTITLE4=Johnny Winter - Going Down Slow (re-recording)
TTITLE5=Muddy Waters - They Call Me Muddy Waters (live)
TTITLE6=John Lee Hooker - Wednesday Evenin' Blues
TTITLE7=Ike and Tina Turner - I Smell Trouble
TTITLE8=Brownie McGhee and Sonny Terry - Blues For The Lowlands
TTITLE9=Canned Heat - Spoonful (re-recording)
TTITLE10=Nina Simone - Backlash Blues (live)
TTITLE11=Eric Clapton - West Coast Idea
TTITLE12=Dinah Washington - Wise Woman Blues
TTITLE13=Mississippi John Hurt - Got The Blues Can't Be Satisfied
TTITLE14=Lightnin' Hopkins - Want To Come Home
TTITLE15=Bessie Smith - Black Water Blues
TTITLE16=Big Joe Williams - Baby Please Don't Go (live)
TTITLE17=Mississippi John Hurt - Nobody's Dirty Business
EXTD=
EXTT0=
EXTT1=
EXTT2=
EXTT3=re-recording
EXTT4=re-recording
EXTT5=live recording
EXTT6=
EXTT7=
EXTT8=
EXTT9=re-recording
EXTT10=live recording
EXTT11=
EXTT12=
EXTT13=
EXTT14=
EXTT15=
EXTT16=live recording
EXTT17=
PLAYORDER=
